<?xml version="1.0" encoding="utf-8"?>
<!-- Generator: Adobe Illustrator 23.0.4, SVG Export Plug-In . SVG Version: 6.00 Build 0)  -->
<svg version="1.1" id="Layer_1" xmlns="http://www.w3.org/2000/svg" xmlns:xlink="http://www.w3.org/1999/xlink" x="0px" y="0px"
	 viewBox="0 0 150 31" style="enable-background:new 0 0 150 31;" xml:space="preserve">
<style type="text/css">
	.st0{fill:#292B32;}
	.st1{fill:#0095EB;}
	.st2{fill:#47C0FC;}
</style>
<g>
	<g>
		<path class="st0" d="M39.6,21h-3.4V7.7h3.4v4.8h4.9V7.7h3.4V21h-3.4v-5.4h-4.9V21z"/>
		<path class="st0" d="M61.8,21h-3.7l-2.3-4.6c-0.2,0-0.4,0-0.6,0h-1.6V21h-3.4V7.7h5.6c0.6,0,1.2,0,1.8,0.1
			c0.6,0.1,1.1,0.2,1.4,0.3c1.5,0.7,2.3,2,2.3,3.8c0,1-0.2,1.8-0.6,2.4c-0.4,0.6-0.9,1.1-1.6,1.4L61.8,21z M53.6,13.5h2.1
			c0.6,0,1-0.1,1.3-0.2c0.4-0.2,0.6-0.6,0.6-1.2c0-0.3-0.1-0.5-0.2-0.7c-0.1-0.2-0.3-0.3-0.5-0.4c-0.3-0.1-0.7-0.2-1.2-0.2h-2.2
			V13.5z"/>
		<path class="st0" d="M65.8,19l2-2.1c0.6,0.6,1.2,1,1.9,1.3c0.7,0.3,1.4,0.5,2.1,0.5c1.3,0,2-0.4,2-1.3c0-0.4-0.2-0.7-0.5-1
			c-0.3-0.2-0.9-0.5-1.7-0.6l-1.7-0.4c-1.2-0.3-2-0.7-2.5-1.4c-0.5-0.6-0.8-1.5-0.8-2.5c0-1.2,0.5-2.1,1.4-2.9
			c0.9-0.8,2.1-1.1,3.7-1.1c2.1,0,3.7,0.5,5.1,1.6l-1.7,2.3c-0.4-0.4-0.9-0.7-1.6-0.9c-0.7-0.2-1.3-0.3-1.8-0.3
			c-0.6,0-1,0.1-1.3,0.3c-0.3,0.2-0.5,0.5-0.5,0.9c0,0.3,0.1,0.6,0.4,0.8c0.2,0.2,0.7,0.4,1.4,0.6l1.7,0.4c1.4,0.3,2.4,0.8,3,1.4
			c0.6,0.6,0.9,1.4,0.9,2.5c0,1.3-0.5,2.3-1.4,3c-1,0.8-2.3,1.1-3.9,1.1c-1.2,0-2.3-0.2-3.3-0.6C67.5,20.3,66.6,19.8,65.8,19z"/>
		<path class="st0" d="M78.3,16.3c0-0.8,0.1-1.5,0.4-2.2c0.3-0.7,0.6-1.2,1.1-1.6c0.5-0.4,1-0.8,1.6-1c0.6-0.2,1.3-0.3,2-0.3
			c1,0,1.8,0.2,2.6,0.6c0.8,0.4,1.4,1,1.9,1.7c0.5,0.8,0.7,1.7,0.7,2.7c0,1.1-0.2,2-0.7,2.7c-0.5,0.8-1.1,1.4-1.8,1.7
			c-0.8,0.4-1.7,0.6-2.7,0.6c-0.7,0-1.3-0.1-1.9-0.3c-0.6-0.2-1.1-0.5-1.6-0.9c-0.5-0.4-0.8-0.9-1.1-1.6
			C78.4,17.7,78.3,17,78.3,16.3z M81.2,16.2c0,0.8,0.2,1.5,0.6,1.9c0.4,0.4,1,0.7,1.6,0.7c0.7,0,1.2-0.2,1.6-0.7
			c0.4-0.4,0.6-1.1,0.6-1.9c0-0.8-0.2-1.4-0.6-1.9c-0.4-0.4-1-0.7-1.6-0.7c-0.6,0-1.2,0.2-1.6,0.7C81.4,14.7,81.2,15.3,81.2,16.2z"
			/>
		<path class="st0" d="M93.1,21h-2.8V7.7h2.8V21z"/>
		<path class="st0" d="M104.6,21h-2.8v-1.3c-0.3,0.5-0.7,0.9-1.3,1.1s-1.2,0.4-1.8,0.4c-1.2,0-2.1-0.4-2.7-1.1
			c-0.4-0.6-0.7-1.5-0.7-2.9v-5.9h2.8v5.3c0,0.8,0.1,1.3,0.4,1.6c0.3,0.3,0.7,0.5,1.3,0.5c0.7,0,1.2-0.2,1.5-0.6
			c0.3-0.4,0.4-1,0.4-1.7v-5h2.8V21z"/>
		<path class="st0" d="M112.7,20.9c-0.6,0.2-1.4,0.4-2.2,0.4c-0.7,0-1.3-0.1-1.8-0.4c-0.5-0.3-0.8-0.7-1-1.2
			c-0.1-0.2-0.2-0.5-0.2-0.7c0-0.3-0.1-0.5-0.1-0.7c0-0.2,0-0.5,0-1v-3.7H106v-2.2h1.4V8.6h2.8v2.7h2v2.2h-2V17
			c0,0.6,0.1,1.1,0.2,1.2c0.2,0.3,0.5,0.5,1,0.5c0.3,0,0.6,0,1-0.2L112.7,20.9z"/>
		<path class="st0" d="M116.7,21h-2.8v-9.7h2.8V21z M116.7,10.1h-2.8V7.7h2.8V10.1z"/>
		<path class="st0" d="M118.4,16.3c0-0.8,0.1-1.5,0.4-2.2c0.3-0.7,0.6-1.2,1.1-1.6c0.5-0.4,1-0.8,1.6-1c0.6-0.2,1.3-0.3,2-0.3
			c1,0,1.8,0.2,2.6,0.6c0.8,0.4,1.4,1,1.9,1.7c0.5,0.8,0.7,1.7,0.7,2.7c0,1.1-0.2,2-0.7,2.7c-0.5,0.8-1.1,1.4-1.8,1.7
			c-0.8,0.4-1.7,0.6-2.7,0.6c-0.7,0-1.3-0.1-1.9-0.3c-0.6-0.2-1.1-0.5-1.6-0.9c-0.5-0.4-0.8-0.9-1.1-1.6
			C118.5,17.7,118.4,17,118.4,16.3z M121.3,16.2c0,0.8,0.2,1.5,0.6,1.9c0.4,0.4,1,0.7,1.6,0.7c0.7,0,1.2-0.2,1.6-0.7
			c0.4-0.4,0.6-1.1,0.6-1.9c0-0.8-0.2-1.4-0.6-1.9c-0.4-0.4-1-0.7-1.6-0.7c-0.6,0-1.2,0.2-1.6,0.7C121.5,14.7,121.3,15.3,121.3,16.2
			z"/>
		<path class="st0" d="M133.2,21h-2.8v-9.7h2.8v1.4c0.3-0.5,0.7-0.9,1.3-1.2c0.6-0.3,1.2-0.4,1.8-0.4c1.2,0,2.1,0.4,2.7,1.1
			c0.5,0.6,0.7,1.6,0.7,2.9V21h-2.8v-5.3c0-0.8-0.1-1.4-0.4-1.7c-0.3-0.3-0.7-0.5-1.2-0.5c-0.3,0-0.6,0.1-0.9,0.2
			c-0.3,0.1-0.5,0.3-0.6,0.5c-0.3,0.4-0.4,1-0.4,1.8V21z"/>
		<path class="st0" d="M140.9,19.5l1.7-1.9c0.9,0.9,2,1.3,3.3,1.3c0.8,0,1.2-0.2,1.2-0.7c0-0.2-0.1-0.4-0.3-0.5
			c-0.2-0.1-0.7-0.3-1.4-0.5l-1.2-0.3c-0.4-0.1-0.8-0.2-1.1-0.4c-0.3-0.1-0.6-0.3-0.8-0.5c-0.3-0.2-0.5-0.5-0.6-0.8
			c-0.1-0.3-0.2-0.7-0.2-1.1c0-0.9,0.4-1.6,1.1-2.2c0.8-0.6,1.8-0.9,3.2-0.9c1.7,0,3.1,0.4,4,1.2l-1.5,2c-0.4-0.3-0.9-0.5-1.4-0.7
			c-0.5-0.2-1-0.3-1.4-0.3c-0.8,0-1.2,0.2-1.2,0.6c0,0.2,0.1,0.3,0.3,0.5s0.6,0.2,1.2,0.4l1.4,0.3c1,0.2,1.7,0.5,2.1,1
			c0.5,0.5,0.7,1.1,0.7,2c0,0.7-0.2,1.3-0.6,1.7c-0.4,0.5-0.9,0.8-1.6,1.1c-0.6,0.2-1.4,0.3-2.2,0.3
			C143.7,21.2,142.1,20.7,140.9,19.5z"/>
	</g>
	<g>
		<path class="st1" d="M26.8,21.9c1.3-2.2,2.1-4.7,2.1-7.4c0-8-6.5-14.4-14.4-14.4C6.5,0,0,6.5,0,14.4c0,3.9,1.5,7.4,4,10l0,0l0,0
			c2.6,2.7,6.3,4.4,10.4,4.4c4.1,0,7.8-1.7,10.4-4.4l6.6,6.6l2.2-2.3L26.8,21.9z M24.4,19.5C24.4,19.5,24.4,19.5,24.4,19.5
			L24.4,19.5c-0.5,1-1.1,1.8-1.9,2.6l0,0c0,0,0,0,0,0c-0.1,0.1-0.3,0.3-0.4,0.4c0,0,0,0,0,0c-0.1,0.1-0.3,0.2-0.4,0.4c0,0,0,0,0,0
			c-0.1,0.1-0.3,0.2-0.4,0.3c0,0,0,0,0,0c-0.1,0.1-0.3,0.2-0.4,0.3c0,0-0.1,0-0.1,0.1c-0.1,0.1-0.2,0.2-0.4,0.2c0,0-0.1,0.1-0.1,0.1
			c-0.1,0.1-0.2,0.1-0.3,0.2c-0.1,0-0.1,0.1-0.2,0.1c-0.1,0-0.1,0.1-0.2,0.1c-0.1,0-0.2,0.1-0.3,0.1c-0.1,0-0.1,0.1-0.2,0.1
			c-0.1,0.1-0.2,0.1-0.3,0.1c-0.1,0-0.1,0-0.2,0.1c-0.1,0-0.2,0.1-0.4,0.1c-0.1,0-0.1,0-0.2,0.1c-0.1,0-0.3,0.1-0.4,0.1
			c0,0-0.1,0-0.1,0c-0.1,0-0.3,0.1-0.4,0.1c0,0-0.1,0-0.1,0c-0.1,0-0.3,0.1-0.4,0.1c0,0-0.1,0-0.1,0c-0.2,0-0.3,0.1-0.5,0.1
			c0,0,0,0-0.1,0c-0.2,0-0.3,0-0.5,0.1c0,0,0,0-0.1,0c-0.2,0-0.4,0-0.5,0c0,0,0,0,0,0c-0.2,0-0.4,0-0.6,0c-0.2,0-0.4,0-0.6,0
			c0,0,0,0,0,0c-0.2,0-0.4,0-0.5,0c0,0,0,0,0,0c-0.2,0-0.3,0-0.5-0.1c0,0,0,0-0.1,0c-0.2,0-0.3-0.1-0.5-0.1c0,0-0.1,0-0.1,0
			c-0.1,0-0.3-0.1-0.4-0.1c0,0-0.1,0-0.1,0c-0.1,0-0.3-0.1-0.4-0.1c0,0-0.1,0-0.1,0c-0.1,0-0.3-0.1-0.4-0.1c-0.1,0-0.1,0-0.2-0.1
			c-0.1,0-0.2-0.1-0.4-0.1c-0.1,0-0.1,0-0.2-0.1c-0.1,0-0.2-0.1-0.3-0.1c-0.1,0-0.1-0.1-0.2-0.1c-0.1,0-0.2-0.1-0.3-0.1
			c-0.1,0-0.1-0.1-0.2-0.1c-0.1,0-0.1-0.1-0.2-0.1c-0.1-0.1-0.2-0.1-0.3-0.2c0,0-0.1,0-0.1-0.1c-0.1-0.1-0.2-0.2-0.4-0.2
			c0,0,0,0-0.1,0c-0.1-0.1-0.3-0.2-0.4-0.3c0,0,0,0,0,0c-0.1-0.1-0.3-0.2-0.4-0.3c0,0,0,0,0,0c-0.1-0.1-0.3-0.2-0.4-0.4c0,0,0,0,0,0
			c-0.1-0.1-0.3-0.3-0.4-0.4c0,0,0,0,0,0l0,0c-0.7-0.8-1.4-1.7-1.9-2.6l0,0c0,0,0,0,0,0c-0.2-0.5-0.4-1-0.6-1.5c0,0,0-0.1,0-0.1
			c0-0.1-0.1-0.3-0.1-0.4c0-0.1,0-0.1-0.1-0.2c0-0.1,0-0.2-0.1-0.2c0-0.1-0.1-0.3-0.1-0.4c0-0.1,0-0.1,0-0.2c0-0.1,0-0.2-0.1-0.4
			c0,0,0-0.1,0-0.1c0-0.1,0-0.3-0.1-0.4c0,0,0-0.1,0-0.1c0-0.2,0-0.3,0-0.5c0,0,0-0.1,0-0.1c0-0.2,0-0.3,0-0.5
			c0-0.8,0.1-1.5,0.2-2.3c0.1-0.4,0.2-0.7,0.3-1.1s0.2-0.7,0.4-1c0.1-0.3,0.3-0.7,0.5-1c0.3-0.6,0.8-1.2,1.2-1.8
			c0.8-1,1.8-1.8,2.8-2.5c0.2-0.1,0.3-0.2,0.5-0.3c0.5-0.3,1-0.5,1.5-0.7c0.9-0.3,1.8-0.5,2.7-0.6c0.4,0,0.8-0.1,1.1-0.1
			c2.3,0,4.5,0.7,6.3,1.9c1,0.7,2,1.6,2.7,2.6c0.1,0.1,0.2,0.3,0.3,0.4c1.2,1.8,1.9,4,1.9,6.3c0,0.2,0,0.3,0,0.5c0,0,0,0.1,0,0.1
			c0,0.2,0,0.3,0,0.5c0,0,0,0.1,0,0.1c0,0.2,0,0.3-0.1,0.4c0,0,0,0.1,0,0.1c0,0.1,0,0.2-0.1,0.4c0,0.1,0,0.1,0,0.2
			c0,0.1-0.1,0.3-0.1,0.4c0,0.1,0,0.2-0.1,0.2c0,0.1,0,0.1-0.1,0.2c0,0.1-0.1,0.3-0.1,0.4c0,0,0,0.1,0,0.1
			C24.9,18.6,24.7,19.1,24.4,19.5z"/>
		<path class="st2" d="M21.8,21.4L21.8,21.4c0.7-0.7,1.2-1.5,1.7-2.4c0,0,0,0,0,0c0-0.1,0.1-0.2,0.1-0.3c-1.3-1-2.7-1.8-4.1-2.4
			c1.1-1.2,1.7-2.7,1.7-4.5c0-3.7-3-6.7-6.7-6.7s-6.7,3-6.7,6.7c0,1.7,0.6,3.3,1.7,4.5c-1.5,0.5-2.9,1.3-4.1,2.4
			c0,0.1,0.1,0.2,0.1,0.3c0,0,0,0,0,0c0.4,0.9,1,1.7,1.7,2.4C11.3,17.7,17.6,17.7,21.8,21.4C21.8,21.4,21.8,21.4,21.8,21.4
			C21.8,21.4,21.8,21.4,21.8,21.4z M14.4,15.4c-1.9,0-3.5-1.6-3.5-3.5s1.6-3.5,3.5-3.5s3.5,1.6,3.5,3.5S16.4,15.4,14.4,15.4z"/>
	</g>
</g>
</svg>
